<svg width="24" height="24" viewBox="0 0 24 24" fill="none" xmlns="http://www.w3.org/2000/svg">
<path d="M8.47898 13.3411C8.47898 13.6211 8.62898 13.8811 8.88898 14.0111C9.25898 14.2011 9.70898 14.0511 9.89898 13.6711C10.329 12.8011 10.989 12.0611 11.789 11.5311C12.059 11.3511 12.399 11.3511 12.669 11.5311C13.469 12.0711 14.129 12.8111 14.559 13.6711C14.739 14.0511 15.189 14.2011 15.569 14.0111C15.939 13.8311 16.089 13.3811 15.899 13.0111C15.349 11.9111 14.519 10.9711 13.499 10.2911C12.729 9.78105 11.729 9.78105 10.959 10.2911C9.93898 10.9711 9.10898 11.9111 8.55898 13.0111C8.50898 13.1111 8.47898 13.2311 8.47898 13.3411Z" fill="#292D32"/>
<path d="M15 1.25H9C3.57 1.25 1.25 3.57 1.25 9V15C1.25 20.43 3.57 22.75 9 22.75H15C20.43 22.75 22.75 20.43 22.75 15V9C22.75 3.57 20.43 1.25 15 1.25ZM9 21.25C4.39 21.25 2.75 19.61 2.75 15V9C2.75 4.39 4.39 2.75 9 2.75H15C19.61 2.75 21.25 4.39 21.25 9V15C21.25 19.61 19.61 21.25 15 21.25H9Z" fill="#292D32"/>
</svg>
