<svg width="24" height="24" viewBox="0 0 24 24" fill="none" xmlns="http://www.w3.org/2000/svg">
<path d="M8.47898 10.6589C8.47898 10.3789 8.62898 10.1189 8.88898 9.98895C9.25898 9.79895 9.70898 9.94895 9.89898 10.3289C10.329 11.1989 10.989 11.9389 11.789 12.4689C12.059 12.6489 12.399 12.6489 12.669 12.4689C13.469 11.9289 14.129 11.1889 14.559 10.3289C14.739 9.94895 15.189 9.79895 15.569 9.98895C15.939 10.1689 16.089 10.6189 15.899 10.9889C15.349 12.0889 14.519 13.0289 13.499 13.7089C12.729 14.2189 11.729 14.2189 10.959 13.7089C9.93898 13.0289 9.10898 12.0889 8.55898 10.9889C8.50898 10.8889 8.47898 10.7689 8.47898 10.6589Z" fill="#292D32"/>
<path d="M15 22.75H9C3.57 22.75 1.25 20.43 1.25 15V9C1.25 3.57 3.57 1.25 9 1.25H15C20.43 1.25 22.75 3.57 22.75 9V15C22.75 20.43 20.43 22.75 15 22.75ZM9 2.75C4.39 2.75 2.75 4.39 2.75 9V15C2.75 19.61 4.39 21.25 9 21.25H15C19.61 21.25 21.25 19.61 21.25 15V9C21.25 4.39 19.61 2.75 15 2.75H9Z" fill="#292D32"/>
</svg>
